<?xml version="1.0" standalone="no"?><!DOCTYPE svg PUBLIC "-//W3C//DTD SVG 1.1//EN" "http://www.w3.org/Graphics/SVG/1.1/DTD/svg11.dtd"><svg class="icon" width="200px" height="200.00px" viewBox="0 0 1024 1024" version="1.1" xmlns="http://www.w3.org/2000/svg"><path fill="#333333" d="M737.939 448.209H696.85V340.941c0-101.002-82.171-183.174-183.174-183.174-101.002 0-183.173 82.171-183.173 183.174v107.267h-40.326c-33.137 0-60 26.863-60 60v288.346c0 33.137 26.863 60 60 60H737.94c33.137 0 60-26.863 60-60V508.209c-0.001-33.138-26.864-60-60.001-60zM407.038 340.941c0-58.801 47.838-106.639 106.638-106.639 58.801 0 106.639 47.838 106.639 106.639v107.267H407.038V340.941z m146.265 377.828c0 22.777-18.464 41.241-41.241 41.241s-41.241-18.464-41.241-41.241V594.012c0-22.777 18.464-41.241 41.241-41.241s41.241 18.464 41.241 41.241v124.757z"  /></svg>