<?xml version="1.0" standalone="no"?><!DOCTYPE svg PUBLIC "-//W3C//DTD SVG 1.1//EN" "http://www.w3.org/Graphics/SVG/1.1/DTD/svg11.dtd"><svg class="icon" width="200px" height="200.00px" viewBox="0 0 1024 1024" version="1.1" xmlns="http://www.w3.org/2000/svg"><path d="M219.428571 438.857143V365.714286c0-160.914286 131.657143-292.571429 292.571429-292.571429s292.571429 131.657143 292.571429 292.571429v73.142857h36.571428c21.942857 0 36.571429 14.628571 36.571429 36.571428v438.857143c0 21.942857-14.628571 36.571429-36.571429 36.571429h-658.285714c-21.942857 0-36.571429-14.628571-36.571429-36.571429v-438.857143c0-21.942857 14.628571-36.571429 36.571429-36.571428H219.428571z m512-73.142857c0-124.342857-95.085714-219.428571-219.428571-219.428572S292.571429 241.371429 292.571429 365.714286v73.142857h438.857142V365.714286z" fill="#B4B4B4" /><path d="M512 585.142857c21.942857 0 36.571429 14.628571 36.571429 36.571429v146.285714c0 21.942857-14.628571 36.571429-36.571429 36.571429s-36.571429-14.628571-36.571429-36.571429v-146.285714c0-21.942857 14.628571-36.571429 36.571429-36.571429z" fill="#FFFFFF" /><path d="M731.428571 438.857143V365.714286c0-124.342857-95.085714-219.428571-219.428571-219.428572S292.571429 241.371429 292.571429 365.714286v73.142857h438.857142z" fill="#EEEEEE" /></svg>