<?xml version="1.0" standalone="no"?><!DOCTYPE svg PUBLIC "-//W3C//DTD SVG 1.1//EN" "http://www.w3.org/Graphics/SVG/1.1/DTD/svg11.dtd"><svg class="icon" width="200px" height="200.00px" viewBox="0 0 1024 1024" version="1.1" xmlns="http://www.w3.org/2000/svg"><path fill="#333333" d="M768 409.6l-51.2 0L716.8 307.2c0-113.125376-91.674624-204.8-204.8-204.8s-204.8 91.674624-204.8 204.8l0 102.4-51.2 0c-28.300288 0-51.2 22.899712-51.2 51.2l0 409.6c0 28.300288 22.899712 51.2 51.2 51.2l512 0c28.300288 0 51.2-22.899712 51.2-51.2L819.2 460.8C819.2 432.499712 796.300288 409.6 768 409.6zM358.4 307.2c0-84.825088 68.774912-153.6 153.6-153.6s153.6 68.774912 153.6 153.6l0 102.4-51.2 0L614.4 307.2c0-56.5504-45.8496-102.4-102.4-102.4s-102.4 45.8496-102.4 102.4l0 102.4-51.2 0L358.4 307.2zM460.8 307.2c0-28.274688 22.925312-51.2 51.2-51.2s51.2 22.925312 51.2 51.2l0 102.4L460.8 409.6 460.8 307.2zM768 844.8c0 14.149632-11.450368 25.6-25.6 25.6L281.6 870.4c-14.149632 0-25.6-11.450368-25.6-25.6L256 486.4c0-14.149632 11.450368-25.6 25.6-25.6l460.8 0c14.149632 0 25.6 11.450368 25.6 25.6L768 844.8zM512 563.2c-42.425344 0-76.8 34.374656-76.8 76.8 0 33.72544 21.874688 62.050304 52.100096 72.375296C487.02464 713.875456 486.4 715.225088 486.4 716.8l0 25.6c0 14.149632 11.450368 25.6 25.6 25.6s25.6-11.450368 25.6-25.6l0-25.6c0-1.574912-0.62464-2.924544-0.900096-4.424704C566.925312 702.050304 588.8 673.72544 588.8 640 588.8 597.574656 554.425344 563.2 512 563.2zM512 665.6c-14.149632 0-25.6-11.450368-25.6-25.6s11.450368-25.6 25.6-25.6 25.6 11.450368 25.6 25.6S526.149632 665.6 512 665.6z" /></svg>