<?xml version="1.0" standalone="no"?><!DOCTYPE svg PUBLIC "-//W3C//DTD SVG 1.1//EN" "http://www.w3.org/Graphics/SVG/1.1/DTD/svg11.dtd"><svg class="icon" width="200px" height="200.00px" viewBox="0 0 1024 1024" version="1.1" xmlns="http://www.w3.org/2000/svg"><path fill="#333333" d="M714.752 437.248h-29.696v-62.464c0-99.328-81.408-180.736-180.736-180.736-99.84 0-180.736 80.896-180.736 180.736v62.464h-25.6c-11.264 0-18.432 7.168-18.432 18.432v309.76c0 11.264 7.168 18.432 18.432 18.432h413.184c11.264 0 18.432-7.168 22.016-18.432v-309.76c0.512-11.264-7.168-18.432-18.432-18.432z m-353.792-62.464c0-80.896 66.56-143.872 143.872-143.872 77.312 0 143.872 62.464 143.872 143.872v62.464h-287.744v-62.464z m335.36 372.224h-379.904v-272.896H696.32v272.896z m-217.6-66.56c0 11.264 11.264 22.016 25.6 22.016 14.848 0 25.6-11.264 25.6-22.016 0-14.848-14.848-22.016-14.848-44.032 0-25.6 22.016-62.464 22.016-84.992 0-18.432-14.848-29.696-33.28-29.696s-33.28 11.264-33.28 29.696c0 22.016 22.016 58.88 22.016 84.992 1.024 22.016-13.824 29.184-13.824 44.032z" /></svg>