<?xml version="1.0" standalone="no"?><!DOCTYPE svg PUBLIC "-//W3C//DTD SVG 1.1//EN" "http://www.w3.org/Graphics/SVG/1.1/DTD/svg11.dtd"><svg class="icon" width="200px" height="200.00px" viewBox="0 0 1024 1024" version="1.1" xmlns="http://www.w3.org/2000/svg"><path fill="#333333" d="M510.464 616.96c-82.432 0-159.744-32.256-218.112-90.112-58.368-58.368-90.112-135.68-90.112-218.112s32.256-159.744 90.112-218.112c58.368-58.368 135.68-90.112 218.112-90.112s159.744 32.256 218.112 90.112c58.368 58.368 90.112 135.68 90.112 218.112s-32.256 159.744-90.112 218.112c-58.368 57.856-135.68 90.112-218.112 90.112z m0-552.448c-134.656 0-244.224 109.568-244.224 244.224 0 134.656 109.568 244.224 244.224 244.224 134.656 0 244.224-109.568 244.224-244.224-0.512-134.656-110.08-244.224-244.224-244.224z"  /><path fill="#333333" d="M980.992 1024H916.48c0-108.032-41.984-209.408-118.272-286.208-76.8-76.288-178.176-118.272-286.208-118.272s-209.408 41.984-286.208 118.272C149.504 814.08 107.52 915.968 107.52 1024h-64.512c0-63.488 12.288-124.928 36.864-182.784 23.552-55.808 57.344-105.984 100.352-148.992s93.184-76.8 148.992-100.352c57.856-24.576 119.296-36.864 182.784-36.864 63.488 0 124.928 12.288 182.784 36.864 55.808 23.552 105.984 57.344 148.992 100.352s76.8 93.184 100.352 148.992c24.576 57.856 36.864 119.296 36.864 182.784z"  /></svg>