<?xml version="1.0" standalone="no"?><!DOCTYPE svg PUBLIC "-//W3C//DTD SVG 1.1//EN" "http://www.w3.org/Graphics/SVG/1.1/DTD/svg11.dtd"><svg class="icon" width="200px" height="200.00px" viewBox="0 0 1024 1024" version="1.1" xmlns="http://www.w3.org/2000/svg"><path fill="#333333" d="M512 601.6c-162.133333 0-294.4-132.266667-294.4-294.4s132.266667-298.666667 294.4-298.666667 294.4 132.266667 294.4 294.4S674.133333 601.6 512 601.6zM512 93.866667c-115.2 0-209.066667 93.866667-209.066667 209.066667S396.8 512 512 512s209.066667-93.866667 209.066667-209.066667S627.2 93.866667 512 93.866667zM123.733333 1011.2c-21.333333 0-42.666667-17.066667-42.666667-42.666667 0-8.533333 0-12.8 0-17.066667 0-238.933333 196.266667-435.2 435.2-435.2 25.6 0 42.666667 17.066667 42.666667 42.666667s-17.066667 42.666667-42.666667 42.666667c-192 0-349.866667 157.866667-349.866667 349.866667l0 12.8C166.4 989.866667 145.066667 1011.2 123.733333 1011.2L123.733333 1011.2zM900.266667 1006.933333 900.266667 1006.933333c-25.6 0-42.666667-17.066667-42.666667-42.666667l0-12.8c0-192-157.866667-349.866667-349.866667-349.866667-25.6 0-42.666667-17.066667-42.666667-42.666667s17.066667-42.666667 42.666667-42.666667c238.933333 0 435.2 196.266667 435.2 435.2 0 4.266667 0 8.533333 0 12.8C942.933333 989.866667 925.866667 1006.933333 900.266667 1006.933333z" /></svg>