<?xml version="1.0" standalone="no"?><!DOCTYPE svg PUBLIC "-//W3C//DTD SVG 1.1//EN" "http://www.w3.org/Graphics/SVG/1.1/DTD/svg11.dtd"><svg class="icon" width="200px" height="169.54px" viewBox="0 0 1208 1024" version="1.1" xmlns="http://www.w3.org/2000/svg"><path fill="#333333" d="M962.544752 449.136068h-10.778638c3.592879-21.560547 7.185758-46.710701 7.185758-71.860855 0-211.992957-172.468015-377.271941-388.050578-377.271941-215.585836 0-388.053851 165.278984-388.053851 377.271941 0 25.153426 3.592879 46.710701 7.185758 71.860855h-14.371516c-61.082217 0-107.792918 46.710701-107.792918 107.789646v359.307546c0 61.082217 46.710701 107.792918 107.792918 107.792918h786.883067c61.082217 0 107.792918-46.710701 107.792918-107.792918V556.925714c0-61.082217-46.710701-107.789646-107.792918-107.789646zM567.308415 53.896459c183.246652 0 330.564513 143.721709 330.564512 323.375482 0 25.153426-3.592879 50.30358-7.18903 71.860855H247.52254l-3.59288-3.592879c-3.592879-21.560547-7.185758-43.114549-7.185758-68.267976 0-183.246652 147.317861-323.375482 330.564513-323.375482z m395.236337 916.23326H175.661685c-28.743033 0-53.896459-25.150154-53.896459-53.896459V556.925714c0-28.743033 25.150154-53.896459 53.896459-53.896459H958.951872c28.743033 0 53.896459 25.150154 53.896459 53.896459v359.307546h0.101439c0.003272 28.746305-21.658713 53.896459-50.405018 53.896459z"  /><path fill="#333333" d="M569.373175 602.968885h-0.539914a26.678273 26.678273 0 0 0-26.678272 26.681545v60.264167a26.678273 26.678273 0 0 0 26.678272 26.678273h0.539914a26.678273 26.678273 0 0 0 26.678273-26.678273v-60.264167a26.678273 26.678273 0 0 0-26.678273-26.681545zM569.373175 759.013712h-0.539914a26.678273 26.678273 0 0 0-26.678272 26.678273v60.264166a26.678273 26.678273 0 0 0 26.678272 26.678273h0.539914a26.678273 26.678273 0 0 0 26.678273-26.678273v-60.264166a26.678273 26.678273 0 0 0-26.678273-26.678273z"  /></svg>